<svg xmlns="http://www.w3.org/2000/svg" width="804.712" height="863.337" viewBox="0 0 804.712 863.337">
  <g id="Group_47" data-name="Group 47" transform="translate(-653.025 -222.408)">
    <g id="Group_24" data-name="Group 24" transform="translate(1156.684 222.408)">
      <path id="Path_552" data-name="Path 552" d="M325.32,568.774a22.006,22.006,0,0,1,3.076,1.715l97.756-41.722,3.487-25.751,39.061-.24-2.308,59.065L337.364,595.967a23.144,23.144,0,0,1-.977,2.631,22.307,22.307,0,1,1-11.069-29.82Z" transform="translate(-293.877 -265.453)" fill="#feb8b8"/>
      <path id="Path_553" data-name="Path 553" d="M326.788,834.393H300.066L287.355,731.328h39.436Z" transform="translate(-137.76 4.131)" fill="#feb8b8"/>
      <path id="Path_554" data-name="Path 554" d="M317.177,775.119H368.71v32.436H284.73a32.447,32.447,0,0,1,32.447-32.447h0Z" transform="translate(-173.956 55.771)" fill="#2f2e41"/>
      <path id="Path_555" data-name="Path 555" d="M289.023,830.657l-26.59,2.616L239.679,731.951l39.247-3.856Z" transform="translate(3.925 0.318)" fill="#feb8b8"/>
      <path id="Path_556" data-name="Path 556" d="M265.22,776.462l51.276-5.051,3.179,32.285-83.557,8.23a32.441,32.441,0,0,1,29.1-35.464Z" transform="translate(-18.623 51.411)" fill="#2f2e41"/>
      <circle id="Ellipse_84" data-name="Ellipse 84" cx="53.531" cy="53.531" r="53.531" transform="translate(142.935 21.183)" fill="#feb8b8"/>
      <path id="Path_557" data-name="Path 557" d="M306.283,972.93a9.752,9.752,0,0,1-9.623-8.065c-13.821-76.76-59.038-327.8-60.12-334.761a3.075,3.075,0,0,1-.036-.483V610.9a3.251,3.251,0,0,1,.608-1.9l5.972-8.359a3.223,3.223,0,0,1,2.494-1.362c34.054-1.6,145.558-6.275,150.945.455h0c5.41,6.757,3.487,27.26,3.051,31.3l.022.421,50.1,320.387a9.834,9.834,0,0,1-8.1,11.192l-31.289,5.154a9.854,9.854,0,0,1-10.953-6.741c-9.677-30.924-42.128-134.952-53.375-175.206a1.084,1.084,0,0,0-2.138.31c.562,38.372,1.919,136.271,2.4,170.085l.05,3.642a9.848,9.848,0,0,1-8.921,9.886L307.2,972.9A9.055,9.055,0,0,1,306.283,972.93Z" transform="translate(-149.948 -155.25)" fill="#2f2e41"/>
      <path id="Path_99" data-name="Path 99" d="M322.971,465.081c-9.342,5.554-14.933,15.758-18.14,26.159a247.78,247.78,0,0,0-10.645,59.195l-3.391,60.15L248.827,770.062c36.376,30.777,57.354,23.78,106.319-1.393s54.559,8.393,54.559,8.393l9.79-135.693L433.484,493.09a65.766,65.766,0,0,0-10.6-10.187,108.233,108.233,0,0,0-92.5-19.617Z" transform="translate(-160.479 -315.787)" fill="#e6e6e6"/>
      <path id="Path_558" data-name="Path 558" d="M270.728,588.866A22.96,22.96,0,0,1,274,590.392l96.662-48.386,1.6-26.21,39.872-2.749,2.136,59.749L285.1,615.518a22.884,22.884,0,1,1-14.369-26.659Z" transform="translate(-121.866 -253.338)" fill="#feb8b8"/>
      <path id="Path_101" data-name="Path 101" d="M287.435,477.106c23.78,8.393,27.972,99.33,27.972,99.33-27.978-15.388-61.552,9.792-61.552,9.792s-6.993-23.783-15.388-54.557a53.464,53.464,0,0,1,11.19-50.361S263.652,468.709,287.435,477.106Z" transform="translate(-15.127 -299.134)" fill="#e6e6e6"/>
      <path id="Path_102" data-name="Path 102" d="M359.754,482.755c-6.67-5.336-15.768,4.359-15.768,4.359L338.65,439.1s-33.346,4-54.693-1.334-24.678,19.349-24.678,19.349a171.284,171.284,0,0,1-.667-30.015c1.334-12.005,18.674-24.011,49.355-32.015s46.688,26.68,46.688,26.68C376.008,432.432,366.432,488.1,359.754,482.755Z" transform="translate(-115.299 -393.889)" fill="#2f2e41"/>
    </g>
    <g id="Group_46" data-name="Group 46" transform="translate(653.025 446.223)">
      <path id="Path_138" data-name="Path 138" d="M1087.376,672.181H598.722a9.06,9.06,0,0,1-9.049-9.049V541.918a9.06,9.06,0,0,1,9.049-9.049h488.654a9.06,9.06,0,0,1,9.049,9.049V663.132a9.06,9.06,0,0,1-9.049,9.049ZM598.722,536.49a5.436,5.436,0,0,0-5.43,5.43V663.134a5.435,5.435,0,0,0,5.43,5.43h488.654a5.435,5.435,0,0,0,5.43-5.43V541.918a5.435,5.435,0,0,0-5.43-5.43Z" transform="translate(-589.673 -532.869)" fill="#e6e6e6"/>
      <path id="Path_139" data-name="Path 139" d="M692.544,556.72a6.144,6.144,0,1,0,0,12.287H982.168a6.144,6.144,0,1,0,0-12.287Z" transform="translate(-522.434 -516.291)" fill="#e6e6e6"/>
      <path id="Path_140" data-name="Path 140" d="M692.544,578.466a6.144,6.144,0,1,0,0,12.287H817.17a6.144,6.144,0,1,0,0-12.287Z" transform="translate(-522.434 -501.173)" fill="#e6e6e6"/>
      <g id="Group_45" data-name="Group 45" transform="translate(48.462 27.864)">
        <circle id="Ellipse_18" data-name="Ellipse 18" cx="36.862" cy="36.862" r="36.862" fill="#e6e6e6"/>
        <path id="Path_395" data-name="Path 395" d="M313.145,256.872a5.71,5.71,0,0,1-3.435-1.142l-.062-.046-12.937-9.9a5.752,5.752,0,1,1,7-9.133l8.38,6.425,19.8-25.834a5.747,5.747,0,0,1,8.057-1.065h0l-.122.17.127-.17a5.754,5.754,0,0,1,1.063,8.058l-23.291,30.391a5.75,5.75,0,0,1-4.573,2.241Z" transform="translate(-282.077 -199.524)" fill="#6c63ff"/>
      </g>
    </g>
  </g>
</svg>
